# xmcd
#
# Track frame offsets: 
#        150
#        13292
#        27146
#        38239
#        52942
#        67198
#        78986
#        92446
#        105058
#        122616
#        135557
#        147223
#        159591
#        172498
#        186001
#        197706
#        211124
#        221916
#        232925
#        245073
#
# Disc length: 3422 seconds
#
# Revision: 0
# Processed by: cddbd v1.5.2PL0 Copyright (c) Steve Scherf et al.
# Submitted via: ExactAudioCopyFreeDBPlugin 1.0
#
DISCID=150d5c14
DTITLE=Sam and Dave - The Nashville Soul Sessions
DYEAR=1965
DGENRE=Soul
TTITLE0=Soul Man (Nashville Version)
TTITLE1=Summertime
TTITLE2=You Don't Know What You Mean To Me
TTITLE3=When Soemthing Is Wrong With My Baby
TTITLE4=You Send Me
TTITLE5=Hold On I'm Coming
TTITLE6=Wonderful World
TTITLE7=Said I Wasn't Gonna Tell Nobody
TTITLE8=Cupid
TTITLE9=I Thank You
TTITLE10=Soul Sister, Brown Sugar
TTITLE11=Dock Of the Bay
TTITLE12=You Got Me Hummin'
TTITLE13=Don't Pull Your Love
TTITLE14=Soothe Me
TTITLE15=Gimme Some Lovin'
TTITLE16=Bring It On Home
TTITLE17=Another Saturday Night
TTITLE18=You DOn't Know Like I Know
TTITLE19=Can't You Find Another Way Of Doing It Baby
EXTD=
EXTT0=
EXTT1=
EXTT2=
EXTT3=
EXTT4=
EXTT5=
EXTT6=
EXTT7=
EXTT8=
EXTT9=
EXTT10=
EXTT11=
EXTT12=
EXTT13=
EXTT14=
EXTT15=
EXTT16=
EXTT17=
EXTT18=
EXTT19=
PLAYORDER=
